<svg width="16" height="18" viewBox="0 0 16 18" fill="none" xmlns="http://www.w3.org/2000/svg">
<g clip-path="url(#clip0_544_74)">
<path d="M11.9705 2.46967C11.9217 2.18662 11.8862 1.94779 11.8418 1.70897C11.7309 1.12517 12.0415 0.629832 12.5874 0.519265C13.1155 0.41312 13.5904 0.753667 13.6969 1.34188C13.8922 2.41217 14.0786 3.48689 14.2561 4.5616C14.3493 5.14539 14.0076 5.58766 13.4262 5.68938C12.3477 5.87071 11.2737 6.05646 10.1953 6.24222C9.67604 6.33067 9.20561 6.01224 9.09022 5.49036C8.98371 5.01271 9.29437 4.51295 9.79587 4.40238C10.2042 4.3095 10.6169 4.25201 11.074 4.1724C10.5636 3.87166 10.0621 3.66822 9.52958 3.53553C6.06791 2.67311 2.47754 4.9331 1.96273 8.60393C1.53224 11.6556 3.33852 14.464 6.2765 15.3529C9.77368 16.4144 13.4439 14.1765 14.0875 10.5809C14.1673 10.1474 14.3182 9.78479 14.7709 9.63884C15.4189 9.43097 16.0579 9.93516 15.9958 10.6207C15.9204 11.4123 15.6851 12.1642 15.3345 12.8762C14.0875 15.3972 12.077 16.9495 9.29437 17.3962C4.99391 18.0862 1.0618 15.2601 0.183072 11.1735C-0.722288 6.96754 1.81183 2.82348 5.98359 1.73108C7.98071 1.2092 9.90682 1.42149 11.7486 2.3591C11.8107 2.39006 11.8684 2.4166 11.9705 2.46967Z" fill="#2860CE"/>
</g>
<defs>
<clipPath id="clip0_544_74">
<rect width="16" height="17" fill="white" transform="translate(0 0.5)"/>
</clipPath>
</defs>
</svg>
